HIERARCHY
ROOT hip
{
	OFFSET 0.000000 0.000000 0.000000 
	CHANNELS 6 Xposition Yposition Zposition Xrotation Zrotation Yrotation
	JOINT abdomen
	{
		OFFSET 0.000000 3.402643 0.000000 
		CHANNELS 3 Xrotation Zrotation Yrotation
		JOINT chest
		{
			OFFSET 0.000000 8.438565 -0.680529 
			CHANNELS 3 Xrotation Zrotation Yrotation
			JOINT neck
			{
				OFFSET 0.000000 10.207942 -0.272212 
				CHANNELS 3 Xrotation Zrotation Yrotation
				JOINT head
				{
					OFFSET 0.000000 3.130431 0.000000 
					CHANNELS 3 Xrotation Zrotation Yrotation
					End Site
					{
						OFFSET 0.000000 3.130435 0.000000 
					}
				}
			}
			JOINT lCollar
			{
				OFFSET 3.470700 6.669187 -0.816635 
				CHANNELS 3 Yrotation Zrotation Xrotation
				JOINT lShldr
				{
					OFFSET 3.198488 0.000000 0.000000 
					CHANNELS 3 Zrotation Yrotation Xrotation
					JOINT lForeArm
					{
						OFFSET 10.139888 0.000000 0.000000 
						CHANNELS 3 Yrotation Zrotation Xrotation
						JOINT lHand
						{
							OFFSET 8.370511 0.000000 0.000000 
							CHANNELS 3 Zrotation Yrotation Xrotation
							End Site
							{
								OFFSET 4.083176 0.000000 0.000000 
							}
						}
					}
				}
			}
			JOINT rCollar
			{
				OFFSET -3.470700 6.669187 -0.816635 
				CHANNELS 3 Yrotation Zrotation Xrotation
				JOINT rShldr
				{
					OFFSET -3.198488 0.000000 0.000000 
					CHANNELS 3 Zrotation Yrotation Xrotation
					JOINT rForeArm
					{
						OFFSET -10.139888 0.000000 0.000000 
						CHANNELS 3 Yrotation Zrotation Xrotation
						JOINT rHand
						{
							OFFSET -8.370511 0.000000 0.000000 
							CHANNELS 3 Zrotation Yrotation Xrotation
							End Site
							{
								OFFSET -4.083176 0.000000 0.000000 
							}
						}
					}
				}
			}
		}
	}
	JOINT lThigh
	{
		OFFSET 5.308129 -1.633274 1.361059 
		CHANNELS 3 Xrotation Zrotation Yrotation
		JOINT lShin
		{
			OFFSET -2.041588 -20.007561 0.000000 
			CHANNELS 3 Xrotation Zrotation Yrotation
			JOINT lFoot
			{
				OFFSET 0.000000 -19.190928 -1.224953 
				CHANNELS 3 Xrotation Yrotation Zrotation
				End Site
				{
					OFFSET 0.000000 -2.449906 4.627600 
				}
			}
		}
	}
	JOINT rThigh
	{
		OFFSET -5.308129 -1.633274 1.361059 
		CHANNELS 3 Xrotation Zrotation Yrotation
		JOINT rShin
		{
			OFFSET 2.041588 -20.007561 0.000000 
			CHANNELS 3 Xrotation Zrotation Yrotation
			JOINT rFoot
			{
				OFFSET 0.000000 -19.190928 -1.224953 
				CHANNELS 3 Xrotation Yrotation Zrotation
				End Site
				{
					OFFSET 0.000000 -2.449906 4.627600 
				}
			}
		}
	}
}
MOTION
Frames: 16
Frame Time: 0.016667
16.262123 46.077156 60.762547 -17.910154 -30.908201 41.850452 0.000000 0.000000 0.000000 10.878907 -9.843751 -12.618855 -9.169922 11.845703 -2.781199 3.623047 24.003908 -2.466731 10.859375 -9.287109 2.470704 -34.423828 -11.298828 36.289063 -98.544922 3.408203 0.947266 48.261719 -14.433594 -5.400391 -7.919922 24.394533 6.806640 37.617188 8.183594 6.661545 129.843750 1.445313 5.224363 -26.611328 11.474609 42.793919 -51.559925 30.857967 -1.861170 35.672577 -2.501755 -3.731573 -2.397121 -5.030520 18.260704 -7.615561 -1.025127 -12.665917 13.390050 3.652661 0.853177 50.509861 2.461298 13.334056 
16.263580 45.395134 60.679478 -14.853515 -28.535156 38.979717 0.000000 0.000000 0.000000 11.132813 -11.914062 -11.494141 -10.029298 10.976563 -2.646485 1.972656 22.187500 -2.574437 10.869142 -9.453125 2.501604 -35.214844 -12.402344 38.874855 -102.001953 3.564453 1.142578 43.955082 -15.507813 -4.397142 -7.148438 24.453125 6.621094 39.658203 8.779297 8.486328 130.722656 1.474610 5.224609 -28.066406 14.003905 43.603516 -52.326649 27.721134 -2.691324 38.670135 -2.433667 -3.895869 -0.068098 -6.453411 21.479328 -5.935058 0.010275 -11.157582 14.641623 3.650822 0.951021 43.785183 2.718875 5.618237 
16.313128 44.737885 60.559971 -11.953126 -26.044922 36.337894 0.000000 0.000000 0.000000 11.406250 -13.798828 -10.148814 -10.712891 9.912109 -2.556912 0.566406 20.205080 -2.691940 10.869142 -9.453125 2.501604 -36.357422 -13.349609 41.941105 -103.984375 3.623047 1.250000 38.349609 -16.162109 -2.776154 -6.152344 23.994141 6.480404 41.542969 9.541016 9.112946 130.019531 1.455078 5.224361 -30.986328 16.933594 41.702065 -52.419853 24.716166 -2.982652 41.502346 -2.157218 -4.148871 2.141073 -8.049886 24.484077 -4.280231 0.021076 -9.288582 16.802338 3.719790 1.122586 36.211414 3.375785 -3.858946 
16.393280 44.147678 60.385094 -9.589845 -23.437500 33.857422 0.000000 0.000000 0.000000 11.660156 -15.166015 -8.752555 -11.396484 8.857422 -2.478965 -0.625000 17.890625 -2.604422 11.054688 -9.619140 2.569991 -37.861328 -14.140625 45.039063 -104.521484 3.652343 1.278675 31.582029 -15.839844 -0.683594 -4.980468 23.378906 6.343781 42.919922 10.292969 8.710938 128.261719 1.406250 5.224609 -34.541016 18.935547 38.422592 -52.646229 21.929790 -2.636104 43.947632 -2.000268 -4.614572 3.805482 -9.091112 26.727510 -3.816053 -1.044026 -7.541880 18.961395 3.700181 1.255205 29.810736 5.061324 -13.855951 
16.469061 43.660934 60.154850 -7.548829 -21.279299 31.689451 0.000000 0.000000 0.000000 11.875000 -15.849609 -7.180402 -11.894532 7.832032 -2.167969 -1.621094 15.761719 -2.402344 11.240234 -9.960938 2.666015 -39.228519 -14.042968 47.275391 -103.984375 3.623047 1.250000 23.613281 -14.013673 1.152344 -3.808594 22.422104 6.148576 43.789059 11.367187 7.099610 125.976555 1.328125 5.224609 -37.792969 19.550783 35.029297 -52.591583 19.793055 -2.588680 45.913837 -1.826441 -4.476201 5.598505 -10.036503 28.468010 -4.519622 -2.791571 -5.524445 22.222155 3.309851 1.781308 24.150240 7.223436 -21.261694 
16.525896 43.296608 59.886696 -5.781250 -19.248047 29.628906 0.000000 0.000000 0.000000 11.894531 -16.191408 -5.839844 -12.402345 6.816407 -1.845703 -2.412109 13.466796 -1.648116 11.435548 -10.468750 2.824040 -40.468746 -13.212891 48.298546 -102.548828 3.564453 1.162109 14.482422 -10.820313 1.746215 -2.460938 21.308592 5.742187 44.492188 12.265626 4.794922 122.988281 1.240234 5.224609 -40.039063 19.003906 31.673103 -52.550636 18.034916 -2.453741 47.130772 -1.738952 -4.690551 7.088837 -10.479387 28.903082 -6.431454 -4.869763 -2.443864 26.297846 3.398188 1.907874 19.704960 8.550200 -25.690662 
16.546297 43.047409 59.620007 -4.433594 -17.529297 28.037111 0.000000 0.000000 0.000000 12.246093 -15.830078 -4.814453 -12.724610 5.830078 -1.308594 -3.242188 11.708984 -0.986328 11.630859 -10.800781 2.929688 -41.572266 -11.660156 47.929691 -100.546875 3.496094 1.044326 4.746094 -6.025391 0.869141 -0.947266 20.214846 5.387251 44.677734 13.154297 2.150661 119.833992 1.142578 5.214649 -41.679688 17.626953 28.310549 -52.666031 16.481791 -3.022541 48.009113 -1.478202 -4.819020 8.575507 -10.376398 28.379299 -9.602690 -6.801975 -0.387215 30.912703 2.870553 2.801668 17.397272 8.990720 -27.748302 
16.525896 42.892933 59.389751 -3.300781 -16.152344 26.891815 0.000000 0.000000 0.000000 12.382812 -15.126953 -4.013672 -13.066406 5.185547 -0.839844 -3.710938 10.136718 -0.232656 11.640625 -11.152345 2.998047 -42.529297 -9.746094 46.697567 -97.802734 3.369141 1.083984 -4.042969 -0.556641 -1.045013 0.351563 18.915997 4.918714 44.873047 14.033204 -0.485912 116.669914 1.054688 5.195296 -43.134769 16.093750 24.833984 -52.539227 15.046362 -3.757238 48.375225 -1.363330 -4.453082 9.893070 -10.203661 27.874365 -12.944540 -8.747038 1.237751 35.179893 2.494016 2.988938 16.902182 9.244223 -27.921791 
16.458858 42.806950 59.226540 -2.734375 -14.755858 26.501417 0.000000 0.000000 0.000000 12.890625 -14.414063 -3.642578 -13.232422 4.550782 -0.350788 -4.023438 8.925781 0.519093 11.640625 -10.976564 2.968750 -43.320313 -7.822266 45.672497 -94.765625 3.261719 1.102960 -9.228516 4.804688 -2.118321 1.455078 17.773439 4.606394 44.902344 14.384766 -2.949219 113.857422 0.966797 5.175616 -44.775391 14.726563 21.535685 -52.360313 13.866465 -4.621979 48.545925 -1.292611 -4.607162 10.393230 -9.838053 26.693588 -15.564862 -10.321236 1.895358 38.880157 2.327600 3.350892 16.516771 8.514256 -26.791222 
16.339357 42.773430 59.144920 -2.353516 -13.701172 26.728518 0.000000 0.000000 0.000000 13.203125 -13.535156 -3.185879 -13.222656 4.228516 -0.097656 -4.003906 8.242188 1.015625 11.806640 -10.791015 2.958984 -43.222656 -5.878906 45.185543 -91.425781 3.134765 0.937500 -9.765625 8.652345 -0.351562 2.187500 17.128906 4.423828 44.765625 14.560546 -5.224609 111.572266 0.898438 5.165863 -46.777344 13.496095 18.019859 -51.747959 12.791001 -5.363895 48.346989 -1.334968 -4.962132 11.085272 -9.458218 25.498621 -17.367693 -11.939892 1.186027 41.697132 2.141766 3.651683 16.112242 8.133286 -25.431520 
16.165939 42.776348 59.147842 -2.343750 -12.646485 27.568357 0.000000 0.000000 0.000000 13.320313 -12.500000 -2.775551 -13.046875 4.091797 0.126953 -3.632812 7.900391 1.319702 11.796875 -10.449219 2.890625 -42.578121 -4.101562 45.604767 -87.812500 2.832031 0.771002 -6.884765 10.029297 4.161859 2.734375 16.816406 4.287109 44.296875 14.199219 -7.275390 109.990234 0.849609 5.146484 -49.003906 12.773438 14.718957 -51.278507 11.746217 -5.754333 47.653332 -1.500793 -4.642635 11.481841 -9.407067 24.769165 -18.016655 -13.290349 0.123697 43.645161 1.965774 3.526237 15.582610 7.667458 -24.283939 
15.950257 42.802582 59.225071 -2.695313 -11.767578 29.013678 0.000000 0.000000 0.000000 13.447266 -11.298828 -2.177734 -12.519531 4.101563 0.166714 -2.744141 7.753907 1.289063 11.972657 -10.302735 2.716590 -41.562500 -2.675781 46.718521 -83.896484 2.734375 0.771019 -1.953125 8.710938 10.175780 2.910156 17.021484 4.404297 43.662106 13.476562 -9.365234 108.759766 0.820313 5.136579 -51.435547 12.392579 11.574363 -50.306927 11.033957 -5.279136 46.954666 -1.461213 -4.759122 11.456555 -8.758630 23.482166 -17.830254 -13.992789 -0.689527 44.886688 2.226270 3.163780 15.627032 7.691350 -24.619394 
15.718545 42.846298 59.360607 -3.408203 -11.064453 30.691486 0.000000 0.000000 0.000000 13.388673 -10.097657 -1.544681 -11.992188 4.082031 0.029992 -1.503906 7.792969 1.279297 11.962891 -10.136718 2.675781 -40.185547 -1.416016 48.017582 -79.550781 2.539063 0.595703 3.515625 5.000000 15.703976 2.919922 17.372906 4.557675 43.037106 12.402344 -11.103514 107.705078 0.791016 5.126941 -53.554688 12.382813 8.957173 -49.670574 10.506812 -5.061854 46.094524 -1.516523 -4.721309 11.260551 -8.318403 22.336288 -16.939571 -14.322850 -1.951866 45.763744 1.923673 3.449902 15.905009 8.318915 -25.043795 
15.492661 42.903133 59.538399 -4.287109 -10.175781 32.556866 0.000000 0.000000 0.000000 13.339845 -8.906251 -1.056199 -11.279296 4.062500 -0.096964 -0.087891 7.822267 0.947266 11.953124 -9.960937 2.636719 -38.964844 -0.517578 49.306549 -74.912109 2.373047 0.771080 8.730469 0.410156 19.658276 2.744141 17.890627 4.586843 42.753902 11.337891 -12.812499 106.835938 0.703125 5.126833 -55.332031 12.587892 6.689453 -48.308720 9.999611 -4.818530 45.189087 -1.633852 -4.558878 10.750014 -7.862395 20.981987 -15.380519 -14.335549 -3.098419 46.291588 1.923564 3.473699 16.419424 8.580993 -26.077482 
15.290095 42.971626 59.736588 -5.341796 -9.111328 34.578529 0.000000 0.000000 0.000000 13.476563 -7.695313 -0.450526 -10.576172 4.218750 -0.253188 1.328125 8.017578 0.761719 11.953124 -9.960937 2.636719 -37.929691 0.380859 50.419952 -70.214844 2.138672 0.614870 12.822265 -2.656250 22.099607 2.744141 18.251955 4.743035 42.470703 10.107423 -14.217034 105.605469 0.673828 5.107422 -56.757813 12.822265 4.599609 -46.997059 9.462241 -4.965595 44.505585 -1.643572 -4.512031 10.370525 -7.139802 19.326107 -13.356587 -14.234797 -4.101184 46.637001 1.930693 3.663194 16.838427 8.604781 -26.600014 
15.116675 43.045952 59.940613 -6.396484 -8.037108 36.562500 0.000000 0.000000 0.000000 13.623047 -6.669922 0.125819 -9.697266 4.375000 -0.389880 2.919922 8.398438 0.253906 11.777344 -9.970703 2.609113 -37.070313 1.279297 50.820530 -66.113281 1.933594 0.663733 14.990235 -3.378906 23.749424 2.568359 18.769533 4.948030 42.705078 9.062500 -15.457447 104.199219 0.634766 5.087782 -58.007813 13.066406 2.333984 -45.286968 9.110175 -5.162225 43.963505 -1.812293 -4.543859 9.788939 -6.769329 17.425535 -10.846044 -14.144673 -5.305921 46.636864 1.923601 3.669978 16.737507 8.905905 -26.909027 
